P3
10 10
255
0 255 0
28 255 0
56 255 0
85 255 0
113 255 0
142 255 0
170 255 0
199 255 0
227 255 0
255 255 0
0 227 0
28 227 0
56 227 0
85 227 0
113 227 0
142 227 0
170 227 0
199 227 0
227 227 0
255 227 0
0 199 0
28 199 0
56 199 0
85 199 0
113 199 0
142 199 0
170 199 0
199 199 0
227 199 0
255 199 0
0 170 0
28 170 0
56 170 0
85 170 0
113 170 0
142 170 0
170 170 0
199 170 0
227 170 0
255 170 0
0 142 0
28 142 0
56 142 0
85 142 0
113 142 0
142 142 0
170 142 0
199 142 0
227 142 0
255 142 0
0 113 0
28 113 0
56 113 0
85 113 0
113 113 0
142 113 0
170 113 0
199 113 0
227 113 0
255 113 0
0 85 0
28 85 0
56 85 0
85 85 0
113 85 0
142 85 0
170 85 0
199 85 0
227 85 0
255 85 0
0 56 0
28 56 0
56 56 0
85 56 0
113 56 0
142 56 0
170 56 0
199 56 0
227 56 0
255 56 0
0 28 0
28 28 0
56 28 0
85 28 0
113 28 0
142 28 0
170 28 0
199 28 0
227 28 0
255 28 0
0 0 0
28 0 0
56 0 0
85 0 0
113 0 0
142 0 0
170 0 0
199 0 0
227 0 0
255 0 0
